<svg xmlns="http://www.w3.org/2000/svg" viewBox="0 0 6895.79 6895.79" shape-rendering="geometricPrecision" image-rendering="optimizeQuality" fill-rule="evenodd" xmlns:v="https://vecta.io/nano"><defs><radialGradient id="A" gradientUnits="userSpaceOnUse" gradientTransform="matrix(2.00001,0,0,2,-3448,-3448)" cx="3447.89" cy="3447.89" r="2046.73" fx="3447.89" fy="3447.89"><stop offset="0" stop-color="#fefefe"/><stop offset=".161" stop-color="#fefefe"/><stop offset=".69" stop-color="#fff9c8"/><stop offset="1" stop-color="#fff383"/></radialGradient><path id="B" d="M3447.88 1401.18c1130.39 0 2046.73 916.34 2046.73 2046.71 0 1130.38-916.34 2046.73-2046.73 2046.73-1130.38 0-2046.72-916.35-2046.72-2046.73 0-1130.37 916.34-2046.71 2046.72-2046.71z"/></defs><path d="M3447.88 21.95c1892.11 0 3425.95 1533.83 3425.95 3425.93 0 1892.12-1533.84 3425.95-3425.95 3425.95-1892.1 0-3425.93-1533.83-3425.93-3425.95 0-1892.1 1533.83-3425.93 3425.93-3425.93z" fill="#fefefe"/><path d="M3447.89-.01c1903.88 0 3447.89 1544.01 3447.89 3447.9 0 1903.88-1544.01 3447.89-3447.89 3447.89C1544 6895.78-.01 5351.77-.01 3447.89-.01 1544 1544-.01 3447.89-.01zm0 54.97c1873.53 0 3392.94 1519.4 3392.94 3392.94 0 1873.53-1519.4 3392.94-3392.94 3392.94S54.94 5321.44 54.94 3447.9c0-1873.53 1519.4-3392.94 3392.95-3392.94z" fill="#d9dada"/><path d="M3447.88 145.2c1824.05 0 3302.7 1478.66 3302.7 3302.68 0 1824.05-1478.66 3302.69-3302.7 3302.69-1824.03 0-3302.69-1478.65-3302.69-3302.69 0-1824.03 1478.67-3302.68 3302.69-3302.68z" fill="#dff1fd"/><use href="#B" stroke="#c5c6c6" stroke-width="110.58" stroke-miterlimit="22.9256" fill="none"/><use href="#B" fill="url(#A)"/><path d="M803.93 3316.72l62.22 155.06 160.03-48.03-82.41 145.33 137.33 95.18-165.02 26.16 11.2 166.72-123.35-112.71-123.35 112.71 11.2-166.72-165.01-26.16 137.31-95.18-82.41-145.33 160.03 48.03zm5261.5 0l62.22 155.06 160.03-48.03-82.41 145.33 137.31 95.18-165 26.16 11.2 166.72-123.35-112.71-123.35 112.71 11.2-166.72-165.02-26.16 137.32-95.18-82.41-145.33 160.02 48.03z" fill="#ef7f1a"/><path d="M2646.13 2364.98l-2.51 692.53c5.1 363.79 165.43 716.94 717.11 1043.81 27.98 17.48 57.55 26.37 87.14 26.64 29.6-.27 59.17-9.15 87.15-26.64 551.67-326.87 712-680.02 717.11-1043.81l-2.52-692.53c-.31-84.19-3.17-74-85.3-96.39-231.79-63.23-474.05-94.83-716.43-94.96-242.37.13-484.63 31.73-716.42 94.96-82.13 22.39-85 12.2-85.31 96.39z" fill="#fecc00"/><path d="M3264.16 4628.99h367.41L5293.4 3400.71l84.91 67.07-1690.89 1249.75v4.59h-6.22l-.02.02-.01-.02h-466.63l-.01.02-.02-.02h-2.9v-2.14l-1694.2-1252.21 84.91-67.07 1661.83 1228.28zM1840.79 3413.6l1402.02 1036.21-70.15 55.39L1770.7 3468.98l70.09-55.38zm103.37-95.89l1402 1036.21-70.13 55.42-1401.98-1036.25 70.11-55.38zm103.35-95.87l1402.02 1036.22-70.13 55.39-1401.97-1036.22 70.08-55.39zm3010.7 191.74L3656.25 4449.79l70.15 55.41L5128.36 3469l-70.15-55.42zm-103.35-95.87L3552.88 4353.92l70.15 55.4 1401.98-1036.2-70.15-55.41zm-103.36-95.87L3449.53 4258.05l70.15 55.41 1401.97-1036.22-70.15-55.4z" fill="#00a0e3"/><path d="M3733.62 3563.08l-285.76-994.05-285.76 994.05c49.37 26.41 251.76 214.39 277.03 439.65v-463.67c-32.36-4.27-57.34-31.97-57.34-65.5 0-36.48 29.59-66.08 66.07-66.08 36.49 0 66.08 29.6 66.08 66.08 0 33.53-24.98 61.23-57.35 65.51v463.66c25.28-225.27 227.67-413.25 277.03-439.65zM3446 4076.58c-20.42 0-36.96-16.55-36.96-36.94 0-20.41 16.55-36.95 36.96-36.95s36.95 16.55 36.95 36.95-16.55 36.94-36.95 36.94z" fill="#fefefe"/><path d="M2830.64 2645.11l30.65 62.09c10.91 22.09 9.44 22.73 33.73 26.27l71.55 10.4-50.77 49.47c-16.38 15.97-17.53 14.86-13.68 37.3l12.52 73.02-59.2-31.13c-27.77-14.61-27.07-11.86-55.02 2.83l-53.8 28.29 11.39-66.37c4.54-26.49 5.93-25.95-13.26-44.64l-50.05-48.78 77.29-11.24c18.66-2.71 17.34-3.83 25.74-20.85l32.9-66.67z" fill="#00a0e3"/><path d="M3105.2 2380.46l30.65 62.1c10.91 22.09 9.45 22.73 33.73 26.27l71.55 10.39-50.76 49.48c-16.39 15.97-17.54 14.86-13.69 37.3l12.52 73.02-59.19-31.13c-27.78-14.61-27.08-11.86-55.03 2.83l-53.8 28.29 11.39-66.37c4.54-26.49 5.94-25.95-13.25-44.64l-50.05-48.79 77.28-11.23c18.66-2.71 17.34-3.83 25.74-20.85l32.9-66.68z" fill="#e5097f"/><path d="M3447.85 2271.29l30.65 62.1c10.91 22.09 9.45 22.73 33.73 26.26l71.55 10.4-50.76 49.48c-16.39 15.97-17.54 14.86-13.69 37.29l12.53 73.03-59.2-31.13c-27.78-14.61-27.08-11.86-55.03 2.83l-53.8 28.29 11.39-66.37c4.54-26.49 5.94-25.95-13.25-44.65l-50.05-48.78 77.28-11.23c18.66-2.71 17.34-3.83 25.74-20.85l32.9-66.68z" fill="#e31e24"/><path d="M4054.61 2645.11l-30.65 62.09c-10.91 22.09-9.44 22.73-33.72 26.27l-71.55 10.4 50.76 49.47c16.38 15.97 17.53 14.86 13.69 37.3l-12.53 73.02 59.2-31.13c27.78-14.61 27.08-11.86 55.02 2.83l53.8 28.29-11.38-66.37c-4.55-26.49-5.94-25.95 13.25-44.64l50.05-48.78-77.29-11.24c-18.65-2.71-17.33-3.83-25.73-20.85l-32.91-66.67z" fill="#78b833"/><path d="M3780.05 2380.46l-30.65 62.1c-10.91 22.09-9.44 22.73-33.73 26.27l-71.55 10.39 50.77 49.48c16.38 15.97 17.53 14.86 13.68 37.3l-12.52 73.02 59.2-31.13c27.77-14.61 27.07-11.86 55.02 2.83l53.8 28.29-11.39-66.37c-4.54-26.49-5.93-25.95 13.26-44.64l50.05-48.79-77.29-11.23c-18.66-2.71-17.34-3.83-25.74-20.85l-32.9-66.68z" fill="#ef7f1a"/><path d="M1356.5 4729.25l-337.24 150.14c-63.74 28.39-116.63 37.9-158.8 28.56-75.77-16.89-143.23-91.52-202.2-223.98-42.65-95.77-59.75-175.89-51.56-240.41 4.7-37.58 19.9-69.02 45.62-94.18 25.73-24.77 59.63-46.53 101.88-65.36l337.22-150.15c9.16-4.07 15.15-9.26 18.01-15.4 2.84-6.13 3.4-15.03 1.72-26.88l14.44-6.43 83.54 187.63-14.44 6.43c-7.32-9.17-14.3-14.71-21-16.77-6.6-1.95-14.47-.95-23.62 3.13l-300.4 133.74c-34.58 15.4-59.43 28.78-74.44 39.99-14.85 11.12-25.64 24.56-32.07 40.03-17.4 41.43-11.02 96.26 19.25 164.2 30.38 68.27 66.9 109.82 109.34 124.61 15.68 5.28 32.81 6.12 51 2.51 18.36-3.67 44.96-13.18 79.53-28.56l300.41-133.75c9.15-4.07 14.99-9.18 17.99-15.4 2.84-6.13 3.4-15.03 1.72-26.87l14.44-6.44 78.72 176.81-14.44 6.44c-7.67-9.19-14.67-14.73-21.13-16.72-6.47-2-14.34-1.02-23.48 3.06zm46.68 298.99l-310.78 251.67c-7.8 6.32-12.25 12.85-13.41 19.53-1.17 6.68.6 15.4 5.3 26.41l-12.27 9.96-121.18-149.66 12.28-9.94c9.8 6.9 17.95 10.45 24.73 10.69 6.76.23 14.09-2.73 21.88-9.05l432.95-350.59c7.54-6.11 11.86-12.56 13.02-19.22s-.49-15.5-5.31-26.42l12.28-9.96 140.55 173.56-12.27 9.96c-11.4-8.58-21.41-9.15-30.22-2.01-6.01 4.87-9.74 13.59-11.44 26.41l-63.88 520.79 303.38-245.67c7.55-6.11 11.85-12.57 13.03-19.23 1.16-6.66-.49-15.48-5.31-26.42l12.28-9.94 121.18 149.63-12.28 9.94c-9.67-6.98-17.98-10.41-24.74-10.66-6.76-.26-13.97 2.62-21.5 8.74l-432.95 350.59c-7.79 6.32-12.24 12.85-13.41 19.52-1.16 6.68.61 15.41 5.3 26.43l-12.28 9.94-130.28-160.9 12.28-9.94c10.78 8.63 20.41 9.52 28.84 2.68 4.99-4.04 8.71-17.24 11.41-39.53l62.8-527.31zm283.52 836.17l335.27-444.9c5.84-7.75 8.45-15.07 8-21.81-.51-6.75-4.23-14.91-11.57-24.37l9.52-12.61 164.03 123.6-9.5 12.63c-10.99-4.58-19.67-6.17-26.5-4.5-6.72 1.52-13.02 6.06-18.87 13.8l-335.25 444.9c-6.05 8.02-8.76 15.46-8.23 22.44.4 7.12 4.33 15.03 11.49 24.11l-9.52 12.62-164.02-123.6 9.52-12.62c11.17 4.32 19.96 5.78 26.59 4.38 6.61-1.42 13-6.07 19.04-14.08zm686.62 218.85L2685 5794.17c13.17-12.1 21.62-22.29 25.15-30.62 5.4-12.72-.91-25.24-18.83-37.32l6.17-14.54 207.54 88.09-6.16 14.56c-13.8-3.72-24.3-3.87-31.83-.46-7.37 3.49-22.94 16.18-46.75 37.71L2418.2 6215.5c-17.1 15.45-26.82 26.15-29.34 32.06-6.44 15.15-.77 27.93 16.72 38.55l-6.18 14.56-208.6-88.56 6.17-14.55c19.78 5.19 32.97.24 39.53-15.21 2.38-5.6 3.27-19.88 2.49-42.93l-17.69-542.09c-1.04-32.08-2.74-52.1-5.34-59.84-2.64-7.73-10.18-15.23-22.44-22.57l6.19-14.54 215.57 91.49-6.19 14.56c-21.14-4.52-34.37-.29-39.78 12.43-3.53 8.32-5.15 21.42-4.68 39.31l8.71 425.08zm656.62 81.91l-22.01 179.34 419.32 51.47c9.63 1.2 17.25-.19 22.86-3.97 5.61-3.79 10.82-11.13 15.33-22.16l15.68 1.93-20.7 168.57-15.67-1.92c-1.71-11.83-4.99-20.19-9.52-25.23-4.53-5.02-11.6-8.2-21.22-9.4l-592.81-72.79 1.93-15.69c11.85-1.85 20.19-4.97 25.22-9.48 5.03-4.53 8.24-11.77 9.46-21.74l67.83-552.44c1.23-9.96-.15-17.75-3.92-23.37-3.79-5.59-11.11-10.8-22.17-15.31l1.94-15.69 581.03 71.33c9.63 1.19 17.26-.18 22.88-3.97 5.62-3.94 10.83-11.28 15.31-22.15l15.69 1.92-20.71 168.58-15.69-1.93c-1.7-11.66-4.99-20.02-9.5-25.22-4.52-5.03-11.58-8.22-21.07-9.39l-407.71-50.06-19.03 154.86 264.63 32.48c9.47 1.17 17.1-.22 22.71-4.01 5.6-3.78 10.81-11.1 15.32-22.15l15.69 1.93-20.2 164.65-15.69-1.93c-1.76-11.49-5.04-19.86-9.54-25.04-4.5-5.2-11.58-8.39-21.05-9.55l-264.63-32.48zm777.5 29.31l41.61 214.06c1.86 9.54 5.53 16.36 11.07 20.66 5.55 4.45 14.05 6.83 25.6 7.58l3.01 15.52-201.61 39.19-3.01-15.52c10.7-5.43 17.65-10.97 21.06-16.82 3.37-5.87 4.23-13.56 2.38-23.1l-106.3-546.86c-1.91-9.84-5.63-16.85-10.95-21.01-5.35-4.14-13.9-6.85-25.82-7.71l-3.01-15.52 404.52-78.62c49.28-9.59 88.95-14.27 118.95-14.24 30.03.03 57.17 5.16 81.43 15.18 28.07 11.65 50.98 30.33 68.88 56.02 16.91 24.89 28.37 52.84 34.41 83.85 20.54 105.65-26.12 178.76-139.71 219.63l160.08 153.46c28.05 26.92 48.09 43.82 60.21 50.85 12.07 6.88 25.48 9.47 40.51 7.53l3.01 15.52-233.75 45.45-3.01-15.52c15.5-5.7 22.45-12.91 20.77-21.64-1.09-5.65-11.2-17.93-30.31-36.86l-168.58-164.4-171.42 33.32zm-20.73-106.62l217.94-42.35c32.13-6.26 54.75-11.67 67.62-16.17 12.9-4.34 24.38-10.78 34.2-18.88 21.56-17.61 28.97-43.37 22.39-77.12-6.55-33.77-23.06-54.88-49.65-63.12-12.54-4.09-25.43-5.78-38.54-5.09-13.09.71-36.19 4.37-69 10.74l-217.94 42.37 32.97 169.62zm1061.8-625.05l.38 173.64-15.56-.79c-1.11-2.93-2.18-5.34-3.06-7.11-4.94-9.68-18.65-15.98-40.91-18.67-69.12-9.5-137.99 3.25-206.74 38.3-30.37 15.47-55.34 32.8-74.85 52.16-13.87 14.45-23.17 29.91-27.82 46.87-4.59 16.75-3.51 31.89 3.34 45.38 11.29 22.13 32.33 30.45 62.91 24.85 15.88-2.93 47.53-13.68 95.21-32.08l70.97-27.47c42.19-16.15 77.74-26.87 106.32-32.01 28.59-5.16 55.75-5.87 81.83-2.16 26.67 4.12 51.49 14.76 74.45 31.89 23.01 17.25 41.2 38.82 54.52 64.94 21 41.21 26.39 84.8 16.21 130.44-9.18 41.43-35.52 82.19-79.14 121.98-32.38 29.99-70.18 55.86-113.43 77.91-77.56 39.53-163.61 59.92-258.17 61.36-19.8.66-31.21 1.86-34.42 3.49-3.67 1.89-7.88 8.08-12.82 18.36l-15.67.03-9.66-176.28 15.54-.34 2.83 5.58c6.59 12.91 18.78 21.66 36.47 26.31 27.07 7.08 63.29 6.74 108.28-1.06 45.12-7.85 85.13-20.66 120.04-38.44 38.12-19.42 67.38-42.47 87.65-69.03 11.3-14.81 18.32-30.42 21.07-46.75 2.88-16.44.93-31.14-5.65-44.05-9.94-19.51-27.44-28.13-52.67-25.81-17.58 1.75-49.74 11.51-96.63 29.28l-69.79 26.89c-46.67 17.87-80.45 29.53-100.87 34.76-20.43 5.24-42.19 7.83-65.23 7.93-32.67.41-63.07-8.51-91.02-26.77-25.38-16.43-45.71-39.7-61.02-69.74-25.33-49.71-29.25-99.44-11.6-149.27 22.91-65.59 79.16-121.23 168.74-166.87 37.41-19.06 74.4-33.09 110.53-41.91 36.3-8.89 83.73-15.5 142.65-19.84 19.94-1.86 31.69-3.78 35.51-5.72 6.02-3.06 11.26-9.8 15.96-20.51l15.31.31zm431.97 341.45l-350.59-432.94c-6.11-7.55-12.56-11.87-19.22-13.02-6.66-1.17-15.5.49-26.42 5.31l-9.96-12.28 159.63-129.27 9.94 12.28c-7.1 9.55-10.74 17.59-10.77 24.62-.15 6.89 2.71 14.1 8.83 21.64l350.58 432.94c6.32 7.8 12.87 12.23 19.78 13.43 7 1.32 15.62-.58 26.19-5.33l9.94 12.28-159.63 129.25-9.94-12.28c6.9-9.81 10.45-17.96 10.69-24.74.23-6.76-2.73-14.08-9.05-21.88zm129.06-828.05l393.21 307.2c7.92 6.18 15.3 9.03 22.05 8.66 6.76-.34 14.87-4.05 24.55-11.11l12.45 9.74-126.45 161.86-12.45-9.74c4.5-11.11 6.13-19.87 4.83-26.49-1.28-6.66-5.83-13.13-13.74-19.31l-393.21-307.22-125.23 160.3c-5.88 7.51-8.76 14.66-8.38 21.44.22 6.66 3.94 14.98 11.24 24.64l-9.74 12.46-133.83-104.56 9.74-12.45c11.32 4.46 20.19 5.95 26.72 4.8 6.64-1.3 12.78-5.69 18.65-13.2l338.92-433.8c6.08-7.76 9.06-15.06 8.71-21.81-.37-6.75-3.96-14.98-11.24-24.64l9.73-12.46 133.83 104.56-9.74 12.45c-11.14-4.72-20.11-6.31-26.62-4.94-6.66 1.28-13.01 5.95-19.09 13.73l-124.92 159.9zm594.17-588.13l210.03 80.62c9.21 3.54 17.09 4.1 23.62 1.83 6.42-2.46 13.09-8.36 20.22-17.79l14.76 5.66-73.6 191.76-14.76-5.67c.94-11.63-.07-20.47-3.18-26.62-3.27-6.19-9.5-11.06-18.72-14.59l-210.03-80.62-355.45 91.5c-30.5 7.85-51.61 15.1-63.69 21.74-12.01 6.49-21.42 16.28-28.44 29.1l-14.77-5.66 93.32-243.07 14.74 5.66c-4.5 21.37 1 35.12 16.21 40.95 5.38 2.08 19.57.46 42.61-4.97l207.64-47.23-121.24-177.85c-12.93-19.08-22.57-29.81-28.86-32.23-6.76-2.59-13.76-2.28-20.74 1.2-7.05 3.65-13.02 9.63-18.16 18.41l-14.76-5.66 91.12-237.39 14.76 5.66c-3.35 14.24-2.91 27.8 1.67 40.66 4.51 13.04 15.37 32.52 32.78 58.78l202.92 305.84zM1047.06 2242.9c53.62-58.05 115.55-72.95 185.75-44.59 55.83 22.56 91.41 60.17 106.99 112.98 7.58 26.51 9.54 54.63 5.77 84.16-3.77 29.54-13.58 63.91-29.49 103.29l-168.49 417.04-14.66-5.92c1.29-11.93.42-20.79-2.64-26.82-3.06-6.02-9.21-11-18.53-14.76L595.7 2659.77c-9.3-3.75-17.2-4.45-23.59-2.26-6.39 2.23-13.31 7.95-20.54 17.45l-14.66-5.92 166.89-413.07c15.98-39.53 31.93-70.18 47.69-92.03 15.68-21.71 34.25-38.69 55.98-51.2 42.78-24.62 90.95-26.11 144.21-4.59 59.67 24.11 91.39 69.05 95.38 134.75zm-202.05 362.12l94.39-233.62c14.31-35.4 19.11-62.22 14.41-80.45-5.56-20.53-20.81-35.93-45.85-46.03-25.63-10.35-46.81-10.23-63.63.2-16.87 10.59-32.53 33.55-46.83 68.95l-94.4 233.62 141.91 57.34zm267.33 108l91.44-226.3c16.95-41.95 23.42-74.66 19.29-97.81-5-26.68-22.57-46.04-53.11-58.38-30.21-12.2-56.27-10.48-78.74 5.12-18.92 13.46-36.99 41.48-54.07 83.76l-91.44 226.3 166.63 67.31zm209.08-774.57l169.47 137.24c7.55 6.12 14.76 8.98 21.76 8.71 7.11-.17 15.17-3.81 24.5-10.65l12.28 9.94-129.25 159.63-12.28-9.96c4.7-11.02 6.48-19.75 5.31-26.43-1.18-6.65-5.48-13.1-13.02-19.22l-432.94-350.58c-7.8-6.33-15.15-9.29-21.9-9.07-6.75.27-15.05 3.71-24.74 10.7l-12.28-9.96 259.34-320.25c31.59-39.01 58.96-68.1 81.97-87.36 23.03-19.28 47.11-32.79 72.15-40.71 28.98-9.14 58.53-9.54 88.78-1.37 28.95 8.2 55.69 22.22 80.23 42.1 83.66 67.75 94.91 153.73 34.15 258.07l221.28 14.65c38.79 2.6 65.01 2.65 78.81.26 13.64-2.49 25.6-9.12 35.87-20.27l12.28 9.96-149.85 185.05-12.28-9.94c8.2-14.32 8.91-24.33 2.01-29.93-4.48-3.62-20.1-6.55-46.91-8.76l-234.83-17.57-109.89 135.71zm-84.4-68.34l139.71-172.55c20.61-25.45 34.44-44.11 41.41-55.84 7.09-11.63 11.75-23.94 14.06-36.45 5.2-27.33-5.68-51.83-32.4-73.47-26.74-21.65-52.96-27.19-78.61-16.43a105.33 105.33 0 0 0-32.8 20.88c-9.57 8.96-24.92 26.61-45.95 52.57l-139.73 172.53 134.3 108.77zm971.06-592.25L1956.3 1435.2l11.31 102.56c1.74 14.25 4.4 24.43 8.3 30.7 7.6 12.15 22.04 14.76 43.21 7.95l8.37 13.4-184.66 115.38-8.37-13.41c9.51-9.03 15.52-18.03 17.83-27.04 2.33-9.03 2.26-23.72-.34-44.05l-62.59-557.01c-2.01-17.79-5.6-30.67-10.76-38.91-7.84-12.56-21.25-16.62-40.54-12.11l-8.39-13.41 197.91-123.65 8.37 13.39c-13.31 14.73-16.21 27.8-9.06 39.25 4.89 7.81 13.07 15.31 24.52 22.11l481.13 297.3c20.49 12.59 36.08 20.15 47.09 22.57 11.02 2.41 22.79 1.08 35.64-3.84l8.37 13.39-205.99 128.73-8.38-13.4c16.1-14.32 19.79-28.28 11.08-42.22-3.67-5.88-11.78-12.63-24.2-20.4l-88.07-54.61zm-82.53-54.41l-212.82-141.22 31.94 254.24 180.88-113.02zm400.6 28.23L2326.51 731.6c-3.47-9.07-8.29-15.15-14.26-18.33-5.98-3.15-14.89-4.32-26.77-3.12l-5.66-14.76 191.74-73.6 5.66 14.76c-9.68 6.9-15.63 13.4-17.84 20.07-2.28 6.51-1.77 14.26 1.73 23.32l199.63 520.09c3.6 9.37 8.47 15.6 14.67 18.87 6.24 3.42 15.03 4.28 26.55 3.03l5.66 14.74-191.76 73.62-5.66-14.76c9.59-7.2 15.49-13.87 17.81-20.22 2.31-6.36 1.75-14.26-1.85-23.63zm318.47-532.92l48.73 396.93c1.23 9.96 4.41 17.19 9.45 21.73 5.04 4.51 13.39 7.63 25.21 9.5l1.94 15.69-191.13 23.47-1.94-15.71c11.06-4.65 18.38-9.7 22.17-15.32 3.79-5.59 5.16-13.39 3.93-23.35l-67.89-552.94c-1.18-9.64-4.38-16.72-9.4-21.23-5.04-4.52-13.39-7.8-25.23-9.5l-1.92-15.69 221.66-27.21 1.93 15.69c-13.29 5.1-19.09 13.29-17.71 24.55.95 7.68 6.39 15.47 16.35 23.7l407.81 330.13-47.57-387.46c-1.2-9.64-4.38-16.72-9.4-21.25-5.04-4.5-13.41-7.78-25.23-9.49l-1.92-15.69 191.11-23.47 1.94 15.69c-11.06 4.52-18.36 9.72-22.15 15.32-3.79 5.61-5.18 13.24-3.99 22.88l67.9 552.92c1.21 9.98 4.41 17.2 9.45 21.74 5.04 4.52 13.38 7.63 25.21 9.51l1.92 15.68-205.48 25.23-1.92-15.69c13.02-4.57 18.87-12.26 17.55-23.03-.79-6.37-9.99-16.53-27.48-30.64l-413.9-332.68zm1279.24 20.1l-232.47 335.98c-12.82 16.8-19.74 27.71-20.93 32.84-3.28 14.27 5.9 27.2 27.77 38.5l-3.55 15.4-206.05-47.56 3.55-15.41c21.92.85 35-7.46 38.96-24.61 1.08-4.67-.2-19.63-3.49-44.91l-74.61-515.3c-3.72-25.53-8.22-43.29-13.69-53.33-5.45-10.04-14.93-17.98-28.38-24.13l3.56-15.4 222.25 51.3-3.55 15.4c-20.73-.22-32.65 6.83-35.93 20.95-1.65 7.2-1.62 18.03.41 32.68l49.13 368.08 215.9-308.92c9.29-13.22 14.61-22.3 15.68-26.95 3.33-14.42-5.11-26.19-25.18-35.03l3.55-15.4 233.16 53.83-3.55 15.4c-22.47.73-35.59 8.51-38.95 23.1-1.19 5.14-.61 15.06 1.5 30.08l52.03 368.73 203.4-303.84c10.4-15 16.62-26.58 18.5-34.75 3.18-13.79-6.1-25.58-27.53-35.08l3.55-15.4 220.16 50.82-3.55 15.4c-16.72.71-28.75 3.84-36.29 9.37-7.51 5.53-19.05 19.6-34.52 42.02l-292.79 430.5c-14.04 20.57-21.85 34.66-23.56 42.03-3.55 15.4 5.29 27.56 26.74 36.39l-3.56 15.4-208.96-48.24 3.55-15.4c22.64 1.5 36.11-6.35 40.16-23.84 1.36-5.93-.36-21.2-4.82-45.72l-57.61-394.99zm843.27 724.1l-243.19-170.29-90 50.48c-12.43 7.18-20.78 13.6-25.01 19.66-8.21 11.74-4.98 26.06 9.56 42.85l-9.07 12.95-178.34-124.88 9.06-12.94c12.04 5.21 22.66 7.24 31.86 5.83 9.23-1.38 22.72-7.19 40.41-17.51l488.28-275.27c15.61-8.79 26.06-17.11 31.63-25.09 8.48-12.13 6.98-26.05-4.71-42.05l9.07-12.95 191.16 133.84-9.07 12.96c-18.75-6.51-31.9-4.06-39.64 6.99-5.3 7.55-9 18.01-10.81 31.21l-85.66 559.05c-3.58 23.79-4.44 41.08-2.38 52.16 2.08 11.1 7.92 21.42 17.47 31.31l-9.08 12.95-198.97-139.34 9.06-12.94c19.46 9.22 33.75 7.17 43.19-6.3 3.97-5.68 7.03-15.77 9.33-30.26l15.84-102.4zm17.84-97.22l46.84-251.08-221.55 128.74 174.71 122.34zm410.01 353.85l-169.47 137.23c-7.55 6.13-11.85 12.56-13.04 19.47-1.32 7 .57 15.62 5.32 26.19l-12.27 9.94-129.25-159.63 12.28-9.94c9.8 6.9 17.96 10.45 24.73 10.69 6.76.23 13.95-2.63 21.52-8.75l432.95-350.58c7.78-6.31 12.23-12.87 13.39-19.53 1.17-6.66-.49-15.5-5.31-26.42l12.28-9.96 259.34 320.27c31.59 39.01 54.36 71.83 68.41 98.33 14.07 26.55 22.29 52.91 24.82 79.05 2.91 30.24-2.83 59.24-17.12 87.12-14.03 26.61-33.32 49.86-57.87 69.75-83.65 67.73-170.1 60.85-259.51-20.28l-60.34 213.42c-10.62 37.4-16.13 63.01-16.65 77.01-.41 13.89 3.6 26.94 12.36 39.31l-12.28 9.95-149.85-185.06 12.27-9.94c12.3 11 21.95 13.76 28.85 8.17 4.48-3.62 10.58-18.3 18.33-44.07l65.99-226.02-109.88-135.71zm84.41-68.36l139.72 172.55c20.61 25.45 35.99 42.85 46.02 52.1 9.89 9.35 20.98 16.48 32.73 21.35 25.67 10.77 51.88 5.21 78.61-16.43 26.71-21.66 37.6-46.13 32.41-73.48a105.5 105.5 0 0 0-13.61-36.41c-6.78-11.24-20.83-29.92-41.85-55.88l-139.73-172.54-134.29 108.75zm363.09 726.96l-167.55 67.7 158.26 391.71c3.64 9 8.54 15 14.58 18.06 6.03 3.06 14.96 4.08 26.8 2.66l5.92 14.64-157.48 63.63-5.92-14.65c9.52-7.21 15.24-14.13 17.46-20.54 2.19-6.4 1.57-14.12-2.08-23.11l-223.74-553.77 14.66-5.92c7.35 9.45 14.13 15.23 20.54 17.44 6.39 2.21 14.27 1.52 23.57-2.27l516.07-208.49c9.3-3.75 15.45-8.74 18.53-14.76 3.05-6.03 4.06-14.96 2.64-26.82l14.66-5.91 219.29 542.76c3.64 9.01 8.53 15.01 14.58 18.08 6.17 3.01 15.1 4 26.8 2.64l5.92 14.66-157.48 63.62-5.92-14.66c9.35-7.15 15.09-14.07 17.44-20.52 2.21-6.41 1.57-14.12-2.01-22.98l-153.88-380.88-144.67 58.45 99.88 247.22c3.57 8.84 8.49 14.84 14.52 17.9 6.04 3.07 14.95 4.08 26.81 2.66l5.91 14.66-153.79 62.14-5.92-14.66c9.2-7.1 14.93-14.02 17.28-20.47 2.37-6.46 1.71-14.19-1.87-23.03l-99.86-247.22z" fill="#0060aa" fill-rule="nonzero"/></svg>